# xmcd
#
# Track frame offsets:
#  150
#  22874
#  38404
#  54076
#  70543
#  94083
#  113810
#  124176
#  140100
#  161018
#  179060
#
# Disc length: 2668 seconds
#
# Revision: 0
# Processed by: cddbd v1.4PL0 Copyright (c) Steve Scherf et al.
# Submitted via: AltoMP3_Maker 3.0
#
DISCID=8b0a6a0b
DTITLE=Tim - Olhos Meus
DYEAR=1900
DGENRE=
TTITLE0=Milhares de Palavras
TTITLE1=Olhos teus
TTITLE2=Querer é Poder
TTITLE3=Caminho ao Sol
TTITLE4=Cantador Namoreiro
TTITLE5=A Prenda
TTITLE6=Amar
TTITLE7=Fora de Pé
TTITLE8=Resistir é Vencer
TTITLE9=Turbilhão
TTITLE10=Voar
EXTD=
EXTT0=
EXTT1=
EXTT2=
EXTT3=
EXTT4=
EXTT5=
EXTT6=
EXTT7=
EXTT8=
EXTT9=
EXTT10=
PLAYORDER=
